<?xml version="1.0" encoding="utf-8"?>
<!-- Generator: Adobe Illustrator 14.0.0, SVG Export Plug-In . SVG Version: 6.00 Build 43363)  -->
<!DOCTYPE svg PUBLIC "-//W3C//DTD SVG 1.1//EN" "http://www.w3.org/Graphics/SVG/1.1/DTD/svg11.dtd">
<svg version="1.1" xmlns="http://www.w3.org/2000/svg" xmlns:xlink="http://www.w3.org/1999/xlink" x="0px" y="0px" width="256px"
	 height="256px" viewBox="0 0 256 256" enable-background="new 0 0 256 256" xml:space="preserve">
<g id="Layer_11">
	<g>
		<defs>
			<path id="SVGID_1_" d="M256,206c0,27.614-22.386,50-50,50H50c-27.614,0-37,0-50,0V50C0,22.386,22.386,0,50,0h156
				c27.614,0,37,0,50,0V206z"/>
		</defs>
		<clipPath id="SVGID_2_">
			<use xlink:href="#SVGID_1_"  overflow="visible"/>
		</clipPath>
		<rect clip-path="url(#SVGID_2_)" fill="#005EAB" width="256" height="256"/>
		<path clip-path="url(#SVGID_2_)" fill="#F2F2F2" d="M27.461,32.485c0-1.301,1.055-2.356,2.356-2.356h196.364
			c1.302,0,2.356,1.055,2.356,2.356v154.424c0,1.302-1.055,2.356-2.356,2.356H29.817c-1.301,0-2.356-1.055-2.356-2.356V32.485z"/>
		<rect y="216.195" clip-path="url(#SVGID_2_)" fill="#3C3C3C" width="256" height="39.805"/>
		<g clip-path="url(#SVGID_2_)">
			<path fill="#9B5C8F" d="M48.587,46.127h45.867c2.903,0,5.252,2.35,5.252,5.252v17.507c0,2.903-2.35,5.253-5.252,5.253H78.006
				l2.258,5.529l-9.929-5.529H48.61c-2.902,0-5.252-2.351-5.252-5.253V51.379C43.335,48.5,45.685,46.127,48.587,46.127z"/>
			<path fill="#FFFFFF" d="M46.169,50.896c0.322-0.438,0.806-0.668,1.452-0.714c1.174-0.092,1.842,0.461,2.003,1.659
				c0.714,4.814,1.498,8.892,2.327,12.233l5.045-9.606c0.46-0.875,1.037-1.336,1.728-1.383c1.013-0.068,1.636,0.577,1.889,1.936
				c0.576,3.064,1.313,5.667,2.189,7.879c0.599-5.852,1.612-10.067,3.041-12.67c0.346-0.645,0.853-0.967,1.521-1.013
				c0.53-0.047,1.014,0.114,1.451,0.46c0.438,0.346,0.668,0.784,0.714,1.313c0.023,0.415-0.045,0.76-0.23,1.105
				c-0.898,1.659-1.636,4.446-2.234,8.317c-0.576,3.755-0.784,6.681-0.646,8.776c0.046,0.577-0.045,1.083-0.276,1.521
				c-0.277,0.507-0.691,0.784-1.222,0.83c-0.598,0.045-1.221-0.23-1.819-0.852c-2.143-2.19-3.848-5.461-5.092-9.814
				c-1.497,2.948-2.603,5.16-3.317,6.633c-1.359,2.604-2.511,3.939-3.479,4.009c-0.622,0.046-1.152-0.483-1.612-1.589
				c-1.175-3.018-2.442-8.847-3.801-17.485C45.731,51.84,45.846,51.311,46.169,50.896z"/>
			<path fill="#FFFFFF" d="M95.698,54.512c-0.829-1.451-2.05-2.327-3.686-2.672c-0.438-0.092-0.852-0.138-1.244-0.138
				c-2.211,0-4.008,1.152-5.413,3.456c-1.198,1.958-1.797,4.124-1.797,6.497c0,1.774,0.369,3.294,1.106,4.562
				c0.829,1.451,2.05,2.326,3.686,2.671c0.438,0.093,0.853,0.139,1.244,0.139c2.235,0,4.032-1.152,5.414-3.456
				c1.198-1.98,1.796-4.146,1.796-6.519C96.804,57.254,96.435,55.756,95.698,54.512L95.698,54.512z M92.795,60.894
				c-0.322,1.521-0.897,2.649-1.75,3.41c-0.668,0.598-1.291,0.853-1.866,0.737c-0.553-0.115-1.015-0.599-1.36-1.497
				c-0.276-0.715-0.414-1.428-0.414-2.097c0-0.575,0.046-1.152,0.161-1.682c0.207-0.944,0.598-1.866,1.221-2.742
				c0.76-1.128,1.567-1.589,2.396-1.428c0.553,0.115,1.014,0.599,1.359,1.497c0.276,0.715,0.414,1.429,0.414,2.097
				C92.957,59.788,92.888,60.364,92.795,60.894L92.795,60.894z"/>
			<path fill="#FFFFFF" d="M81.254,54.512c-0.829-1.451-2.073-2.327-3.686-2.672c-0.438-0.092-0.852-0.138-1.244-0.138
				c-2.212,0-4.008,1.152-5.414,3.456c-1.198,1.958-1.796,4.124-1.796,6.497c0,1.774,0.369,3.294,1.105,4.562
				c0.829,1.451,2.05,2.326,3.687,2.671c0.437,0.093,0.852,0.139,1.243,0.139c2.234,0,4.032-1.152,5.414-3.456
				c1.198-1.98,1.797-4.146,1.797-6.519C82.36,57.254,81.991,55.756,81.254,54.512L81.254,54.512z M78.352,60.894
				c-0.323,1.521-0.899,2.649-1.751,3.41c-0.668,0.598-1.291,0.853-1.866,0.737c-0.553-0.115-1.014-0.599-1.359-1.497
				c-0.276-0.715-0.414-1.428-0.414-2.097c0-0.575,0.046-1.152,0.161-1.682c0.208-0.944,0.599-1.866,1.221-2.742
				c0.76-1.128,1.567-1.589,2.396-1.428c0.553,0.115,1.014,0.599,1.359,1.497c0.276,0.715,0.415,1.429,0.415,2.097
				C78.513,59.788,78.466,60.364,78.352,60.894L78.352,60.894z"/>
			<g>
				<path d="M105.535,54.305c-1.543,1.521-2.304,3.456-2.304,5.805c0,2.512,0.76,4.562,2.28,6.105s3.501,2.326,5.966,2.326
					c0.714,0,1.521-0.114,2.396-0.368v-3.731c-0.806,0.23-1.497,0.345-2.096,0.345c-1.221,0-2.188-0.415-2.926-1.221
					c-0.737-0.829-1.105-1.935-1.105-3.34c0-1.313,0.368-2.396,1.083-3.226c0.737-0.853,1.636-1.267,2.742-1.267
					c0.714,0,1.474,0.115,2.303,0.346v-3.732c-0.76-0.207-1.612-0.299-2.511-0.299C109.013,52.024,107.078,52.785,105.535,54.305z
					 M121.522,52.024c-2.119,0-3.778,0.714-4.976,2.119c-1.198,1.405-1.774,3.387-1.774,5.921c0,2.741,0.599,4.837,1.774,6.29
					c1.175,1.45,2.902,2.187,5.16,2.187c2.188,0,3.87-0.737,5.044-2.187c1.176-1.453,1.774-3.502,1.774-6.128
					c0-2.626-0.599-4.653-1.797-6.082C125.508,52.738,123.78,52.024,121.522,52.024z M123.342,64.003
					c-0.414,0.646-1.036,0.968-1.819,0.968c-0.737,0-1.29-0.323-1.682-0.968c-0.392-0.645-0.575-1.935-0.575-3.894
					c0-3.018,0.76-4.515,2.303-4.515c1.613,0,2.442,1.521,2.442,4.584C123.987,62.068,123.758,63.358,123.342,64.003z
					 M139.906,52.462l-0.829,3.524c-0.208,0.898-0.416,1.821-0.6,2.765l-0.461,2.442c-0.437-2.442-1.036-5.345-1.797-8.731h-5.345
					L128.87,68.15h4.01l1.082-10.804l2.742,10.804h2.856l2.627-10.781l1.127,10.781h4.193l-2.119-15.688H139.906L139.906,52.462z
					 M159.097,52.462l-0.83,3.524c-0.207,0.898-0.414,1.821-0.6,2.765l-0.46,2.442c-0.438-2.442-1.037-5.345-1.797-8.731h-5.345
					l-2.003,15.688h4.007l1.083-10.804l2.74,10.804h2.858l2.604-10.781l1.127,10.781h4.194l-2.12-15.688H159.097z M172.135,61.954
					h3.755v-3.249h-3.755v-2.879h4.33v-3.34h-8.568v15.688h8.593v-3.339h-4.354V61.954z M188.421,59.465
					c0.438-0.714,0.669-1.452,0.669-2.211c0-1.474-0.575-2.65-1.728-3.502c-1.151-0.853-2.742-1.29-4.723-1.29h-4.931V68.15h4.239
					v-7.141h0.069l3.433,7.141h4.469l-3.386-7.072C187.338,60.709,187.984,60.18,188.421,59.465z M181.926,59.212V55.48
					c1.014,0.023,1.728,0.184,2.166,0.506c0.437,0.323,0.644,0.83,0.644,1.567C184.735,58.636,183.792,59.189,181.926,59.212z
					 M191.578,54.305c-1.544,1.521-2.305,3.456-2.305,5.805c0,2.512,0.761,4.562,2.282,6.105c1.52,1.543,3.501,2.326,5.966,2.326
					c0.715,0,1.521-0.114,2.395-0.368v-3.731c-0.805,0.23-1.496,0.345-2.096,0.345c-1.22,0-2.188-0.415-2.925-1.221
					c-0.737-0.829-1.105-1.935-1.105-3.34c0-1.313,0.368-2.396,1.081-3.226c0.737-0.853,1.637-1.267,2.743-1.267
					c0.713,0,1.474,0.115,2.302,0.346v-3.732c-0.758-0.207-1.61-0.299-2.509-0.299C195.079,52.024,193.121,52.785,191.578,54.305z
					 M205.331,64.787V61.93h3.755v-3.248h-3.755v-2.88h4.354v-3.34h-8.57V68.15h8.594v-3.34h-4.378V64.787z"/>
			</g>
		</g>
		<path clip-path="url(#SVGID_2_)" fill="#FFFFFF" d="M56.078,227.495c0,1.158-0.208,7.269-4.429,11.527
			c-4.222-4.259-4.43-10.369-4.43-11.527c-1.53,0.322-3.001,0.742-4.4,1.248c2.085,8.556,8.34,12.212,8.831,12.487
			c0.489-0.275,6.744-3.932,8.829-12.487C59.079,228.237,57.606,227.817,56.078,227.495"/>
		<path clip-path="url(#SVGID_2_)" fill="#FFFFFF" d="M61.565,229.16c-0.45,1.305-3.446,9.312-9.917,12.073
			c-6.472-2.762-9.468-10.769-9.917-12.073c-1.716,0.696-3.312,1.526-4.762,2.473c3.238,6.877,13.999,11.697,14.679,11.996
			c0.679-0.299,11.439-5.119,14.678-11.996C64.877,230.687,63.28,229.856,61.565,229.16"/>
		<path clip-path="url(#SVGID_2_)" fill="#FFFFFF" d="M67.279,232.284c-1.346,1.869-6.657,8.491-15.63,10.563
			c-8.975-2.072-14.286-8.694-15.632-10.563c-2.156,1.554-3.937,3.373-5.241,5.389c7.521,5.798,20.145,5.967,20.873,5.972
			c0.727-0.005,13.351-0.174,20.872-5.972C71.216,235.657,69.435,233.838,67.279,232.284"/>
		<path clip-path="url(#SVGID_2_)" fill="#FFFFFF" d="M73.189,238.797c-6.721,4.322-20.782,4.823-21.541,4.847
			c-0.759-0.023-14.821-0.524-21.542-4.847c-0.292,0.538-0.55,1.089-0.772,1.649c1.074,0.449,9.227,3.655,22.314,3.198
			c13.086,0.457,21.238-2.749,22.312-3.198C73.738,239.886,73.479,239.335,73.189,238.797"/>
		<path clip-path="url(#SVGID_2_)" fill="#FFFFFF" d="M83.181,241.2l1.832-2.605c1.102,1.151,2.815,2.136,4.975,2.136
			c1.854,0,2.723-0.821,2.723-1.735c0-2.723-9.012-0.821-9.012-6.713c0-2.604,2.253-4.765,5.938-4.765
			c2.487,0,4.553,0.751,6.102,2.183l-1.854,2.488c-1.267-1.173-2.957-1.714-4.553-1.714c-1.407,0-2.207,0.611-2.207,1.549
			c0,2.465,8.989,0.798,8.989,6.643c0,2.864-2.065,5.023-6.266,5.023C86.819,243.689,84.66,242.679,83.181,241.2"/>
		<polygon clip-path="url(#SVGID_2_)" fill="#FFFFFF" points="109.043,243.406 104.302,237.117 103.082,238.595 103.082,243.406 
			99.75,243.406 99.75,227.753 103.082,227.753 103.082,234.724 108.62,227.753 112.727,227.753 106.509,235.1 113.149,243.406 		
			"/>
		<polygon clip-path="url(#SVGID_2_)" fill="#FFFFFF" points="120.191,243.406 120.191,237 114.184,227.753 117.985,227.753 
			121.857,234.02 125.729,227.753 129.509,227.753 123.524,237 123.524,243.406 		"/>
		<polygon clip-path="url(#SVGID_2_)" fill="#FFFFFF" points="136.759,243.406 130.726,227.753 134.506,227.753 138.848,239.77 
			143.188,227.753 146.967,227.753 140.935,243.406 		"/>
		<polygon clip-path="url(#SVGID_2_)" fill="#FFFFFF" points="149.594,243.406 149.594,227.753 160.671,227.753 160.671,230.687 
			152.926,230.687 152.926,233.972 160.507,233.972 160.507,236.906 152.926,236.906 152.926,240.476 160.671,240.476 
			160.671,243.406 		"/>
		<path clip-path="url(#SVGID_2_)" fill="#FFFFFF" d="M173.295,243.406l-3.073-5.562h-2.441v5.562h-3.333v-15.653h7.323
			c3.262,0,5.279,2.137,5.279,5.046c0,2.745-1.76,4.249-3.449,4.646l3.544,5.962H173.295z M173.623,232.775
			c0-1.292-1.008-2.088-2.322-2.088h-3.521v4.224h3.521C172.615,234.911,173.623,234.114,173.623,232.775"/>
		<path clip-path="url(#SVGID_2_)" fill="#FFFFFF" d="M179.961,235.591c0-4.951,3.756-8.097,8.355-8.097
			c3.238,0,5.28,1.644,6.453,3.497l-2.746,1.501c-0.727-1.101-2.066-2.041-3.707-2.041c-2.863,0-4.93,2.183-4.93,5.14
			c0,2.958,2.066,5.14,4.93,5.14c1.384,0,2.676-0.609,3.309-1.196v-1.879h-4.131v-2.908h7.463v6.008
			c-1.595,1.783-3.824,2.934-6.641,2.934C183.717,243.688,179.961,240.521,179.961,235.591"/>
		<polygon clip-path="url(#SVGID_2_)" fill="#FFFFFF" points="198.78,243.406 198.78,227.753 209.858,227.753 209.858,230.687 
			202.113,230.687 202.113,233.972 209.694,233.972 209.694,236.906 202.113,236.906 202.113,240.476 209.858,240.476 
			209.858,243.406 		"/>
	</g>
</g>
<g id="bar-code">
	<g>
		<g>
			<rect x="112.688" y="95" fill="#B3B3B3" width="6.125" height="62.5"/>
			<path fill="#B3B3B3" d="M118.812,157.625h-6.125c-0.069,0-0.125-0.056-0.125-0.125V95c0-0.069,0.056-0.125,0.125-0.125h6.125
				c0.069,0,0.125,0.056,0.125,0.125v62.5C118.938,157.569,118.881,157.625,118.812,157.625L118.812,157.625z M112.812,157.375
				h5.875v-62.25h-5.875V157.375L112.812,157.375z"/>
		</g>
		<g>
			<rect x="155.75" y="95" fill="#B3B3B3" width="7" height="62.5"/>
			<path fill="#B3B3B3" d="M162.75,157.625h-7c-0.069,0-0.125-0.056-0.125-0.125V95c0-0.069,0.056-0.125,0.125-0.125h7
				c0.069,0,0.125,0.056,0.125,0.125v62.5C162.875,157.569,162.819,157.625,162.75,157.625L162.75,157.625z M155.875,157.375h6.75
				v-62.25h-6.75V157.375L155.875,157.375z"/>
		</g>
		<g>
			<rect x="101.078" y="95" fill="#B3B3B3" width="2.844" height="62.5"/>
			<path fill="#B3B3B3" d="M103.922,157.625h-2.844c-0.069,0-0.125-0.056-0.125-0.125V95c0-0.069,0.056-0.125,0.125-0.125h2.844
				c0.069,0,0.125,0.056,0.125,0.125v62.5C104.047,157.569,103.991,157.625,103.922,157.625L103.922,157.625z M101.203,157.375
				h2.594v-62.25h-2.594V157.375L101.203,157.375z"/>
		</g>
		<g>
			<rect x="92.867" y="95" fill="#B3B3B3" width="4.266" height="62.5"/>
			<path fill="#B3B3B3" d="M97.133,157.625h-4.266c-0.069,0-0.125-0.056-0.125-0.125V95c0-0.069,0.056-0.125,0.125-0.125h4.266
				c0.069,0,0.125,0.056,0.125,0.125v62.5C97.258,157.569,97.202,157.625,97.133,157.625L97.133,157.625z M92.992,157.375h4.016
				v-62.25h-4.016V157.375L92.992,157.375z"/>
		</g>
		<g>
			<rect x="167.3" y="95" fill="#B3B3B3" width="1.4" height="62.5"/>
			<path fill="#B3B3B3" d="M168.7,157.625h-1.4c-0.069,0-0.125-0.056-0.125-0.125V95c0-0.069,0.056-0.125,0.125-0.125h1.4
				c0.069,0,0.125,0.056,0.125,0.125v62.5C168.825,157.569,168.77,157.625,168.7,157.625L168.7,157.625z M167.425,157.375h1.15
				v-62.25h-1.15V157.375L167.425,157.375z"/>
		</g>
		<g>
			<rect x="81.252" y="95" fill="#B3B3B3" width="0.996" height="62.5"/>
			<path fill="#B3B3B3" d="M82.248,157.625h-0.996c-0.069,0-0.125-0.056-0.125-0.125V95c0-0.069,0.056-0.125,0.125-0.125h0.996
				c0.069,0,0.125,0.056,0.125,0.125v62.5C82.373,157.569,82.317,157.625,82.248,157.625L82.248,157.625z M81.377,157.375h0.746
				v-62.25h-0.746V157.375L81.377,157.375z"/>
		</g>
		<g>
			<rect x="86.252" y="95" fill="#B3B3B3" width="0.996" height="62.5"/>
			<path fill="#B3B3B3" d="M87.248,157.625h-0.996c-0.069,0-0.125-0.056-0.125-0.125V95c0-0.069,0.056-0.125,0.125-0.125h0.996
				c0.069,0,0.125,0.056,0.125,0.125v62.5C87.373,157.569,87.317,157.625,87.248,157.625L87.248,157.625z M86.377,157.375h0.746
				v-62.25h-0.746V157.375L86.377,157.375z"/>
		</g>
		<g>
			<rect x="175.252" y="95" fill="#B3B3B3" width="0.996" height="62.5"/>
			<path fill="#B3B3B3" d="M176.248,157.625h-0.996c-0.069,0-0.125-0.056-0.125-0.125V95c0-0.069,0.056-0.125,0.125-0.125h0.996
				c0.069,0,0.125,0.056,0.125,0.125v62.5C176.373,157.569,176.317,157.625,176.248,157.625L176.248,157.625z M175.377,157.375
				h0.746v-62.25h-0.746V157.375L175.377,157.375z"/>
		</g>
		<g>
			<rect x="181.233" y="95" fill="#B3B3B3" width="0.533" height="74"/>
			<path fill="#B3B3B3" d="M181.767,169.125h-0.533c-0.069,0-0.125-0.056-0.125-0.125V95c0-0.069,0.056-0.125,0.125-0.125h0.533
				c0.069,0,0.125,0.056,0.125,0.125v74C181.892,169.069,181.836,169.125,181.767,169.125L181.767,169.125z M181.358,168.875h0.283
				v-73.75h-0.283V168.875L181.358,168.875z"/>
		</g>
		<g>
			<rect x="187.233" y="95" fill="#B3B3B3" width="0.533" height="74"/>
			<path fill="#B3B3B3" d="M187.767,169.125h-0.533c-0.069,0-0.125-0.056-0.125-0.125V95c0-0.069,0.056-0.125,0.125-0.125h0.533
				c0.069,0,0.125,0.056,0.125,0.125v74C187.892,169.069,187.836,169.125,187.767,169.125L187.767,169.125z M187.358,168.875h0.283
				v-73.75h-0.283V168.875L187.358,168.875z"/>
		</g>
		<g>
			<rect x="184.233" y="95" fill="#B3B3B3" width="0.533" height="74"/>
			<path fill="#B3B3B3" d="M184.767,169.125h-0.533c-0.069,0-0.125-0.056-0.125-0.125V95c0-0.069,0.056-0.125,0.125-0.125h0.533
				c0.069,0,0.125,0.056,0.125,0.125v74C184.892,169.069,184.836,169.125,184.767,169.125L184.767,169.125z M184.358,168.875h0.283
				v-73.75h-0.283V168.875L184.358,168.875z"/>
		</g>
		<g>
			<rect x="68.233" y="95" fill="#B3B3B3" width="0.533" height="74"/>
			<path fill="#B3B3B3" d="M68.767,169.125h-0.533c-0.069,0-0.125-0.056-0.125-0.125V95c0-0.069,0.056-0.125,0.125-0.125h0.533
				c0.069,0,0.125,0.056,0.125,0.125v74C68.892,169.069,68.835,169.125,68.767,169.125L68.767,169.125z M68.358,168.875h0.283
				v-73.75h-0.283V168.875L68.358,168.875z"/>
		</g>
		<g>
			<rect x="74.233" y="95" fill="#B3B3B3" width="0.533" height="74"/>
			<path fill="#B3B3B3" d="M74.767,169.125h-0.533c-0.069,0-0.125-0.056-0.125-0.125V95c0-0.069,0.056-0.125,0.125-0.125h0.533
				c0.069,0,0.125,0.056,0.125,0.125v74C74.892,169.069,74.835,169.125,74.767,169.125L74.767,169.125z M74.358,168.875h0.283
				v-73.75h-0.283V168.875L74.358,168.875z"/>
		</g>
		<g>
			<rect x="71.233" y="95" fill="#B3B3B3" width="0.533" height="74"/>
			<path fill="#B3B3B3" d="M71.767,169.125h-0.533c-0.069,0-0.125-0.056-0.125-0.125V95c0-0.069,0.056-0.125,0.125-0.125h0.533
				c0.069,0,0.125,0.056,0.125,0.125v74C71.892,169.069,71.835,169.125,71.767,169.125L71.767,169.125z M71.358,168.875h0.283
				v-73.75h-0.283V168.875L71.358,168.875z"/>
		</g>
		<g>
			<rect x="149.8" y="95" fill="#B3B3B3" width="1.4" height="62.5"/>
			<path fill="#B3B3B3" d="M151.2,157.625h-1.4c-0.069,0-0.125-0.056-0.125-0.125V95c0-0.069,0.056-0.125,0.125-0.125h1.4
				c0.069,0,0.125,0.056,0.125,0.125v62.5C151.325,157.569,151.27,157.625,151.2,157.625L151.2,157.625z M149.925,157.375h1.15
				v-62.25h-1.15V157.375L149.925,157.375z"/>
		</g>
		<g>
			<rect x="139.3" y="95" fill="#B3B3B3" width="1.4" height="62.5"/>
			<path fill="#B3B3B3" d="M140.7,157.625h-1.4c-0.069,0-0.125-0.056-0.125-0.125V95c0-0.069,0.056-0.125,0.125-0.125h1.4
				c0.069,0,0.125,0.056,0.125,0.125v62.5C140.825,157.569,140.77,157.625,140.7,157.625L140.7,157.625z M139.425,157.375h1.15
				v-62.25h-1.15V157.375L139.425,157.375z"/>
		</g>
		<g>
			<rect x="109.475" y="95" fill="#B3B3B3" width="1.051" height="62.5"/>
			<path fill="#B3B3B3" d="M110.525,157.625h-1.051c-0.069,0-0.125-0.056-0.125-0.125V95c0-0.069,0.056-0.125,0.125-0.125h1.051
				c0.069,0,0.125,0.056,0.125,0.125v62.5C110.65,157.569,110.594,157.625,110.525,157.625L110.525,157.625z M109.6,157.375h0.801
				v-62.25H109.6V157.375L109.6,157.375z"/>
		</g>
		<g>
			<rect x="146.725" y="95" fill="#B3B3B3" width="1.051" height="62.5"/>
			<path fill="#B3B3B3" d="M147.775,157.625h-1.051c-0.069,0-0.125-0.056-0.125-0.125V95c0-0.069,0.056-0.125,0.125-0.125h1.051
				c0.069,0,0.125,0.056,0.125,0.125v62.5C147.9,157.569,147.845,157.625,147.775,157.625L147.775,157.625z M146.85,157.375h0.801
				v-62.25h-0.801V157.375L146.85,157.375z"/>
		</g>
		<g>
			<rect x="131.3" y="95" fill="#B3B3B3" width="1.4" height="74"/>
			<path fill="#B3B3B3" d="M132.7,169.125h-1.4c-0.069,0-0.125-0.056-0.125-0.125V95c0-0.069,0.056-0.125,0.125-0.125h1.4
				c0.069,0,0.125,0.056,0.125,0.125v74C132.825,169.069,132.77,169.125,132.7,169.125L132.7,169.125z M131.425,168.875h1.15v-73.75
				h-1.15V168.875L131.425,168.875z"/>
		</g>
		<g>
			<rect x="124.711" y="95" fill="#B3B3B3" width="2.828" height="74"/>
			<path fill="#B3B3B3" d="M127.539,169.125h-2.828c-0.069,0-0.125-0.056-0.125-0.125V95c0-0.069,0.056-0.125,0.125-0.125h2.828
				c0.069,0,0.125,0.056,0.125,0.125v74C127.664,169.069,127.608,169.125,127.539,169.125L127.539,169.125z M124.836,168.875h2.578
				v-73.75h-2.578V168.875L124.836,168.875z"/>
		</g>
	</g>
	<g>
		<path fill="#B3B3B3" d="M77.48,165.288c0-1.472,0.252-2.566,0.756-3.282c0.504-0.716,1.228-1.074,2.172-1.074
			c1.008,0,1.748,0.354,2.22,1.062s0.708,1.806,0.708,3.294c0,1.48-0.254,2.58-0.762,3.3c-0.508,0.72-1.234,1.08-2.178,1.08
			c-1,0-1.736-0.378-2.208-1.134S77.48,166.696,77.48,165.288z M79.04,165.288c0,0.976,0.106,1.729,0.318,2.262
			s0.562,0.798,1.05,0.798c0.472,0,0.818-0.243,1.038-0.731c0.22-0.488,0.33-1.264,0.33-2.328c0-0.968-0.104-1.716-0.312-2.244
			s-0.564-0.792-1.068-0.792c-0.48,0-0.826,0.248-1.038,0.744S79.04,164.256,79.04,165.288z"/>
		<path fill="#B3B3B3" d="M87.296,168.348c0.496,0,0.874-0.132,1.134-0.396s0.39-0.584,0.39-0.96c0-0.456-0.136-0.792-0.408-1.008
			c-0.272-0.217-0.7-0.324-1.284-0.324h-0.864v-0.828l1.452-1.98l0.684-0.54l-0.948,0.108h-2.016v-1.32h4.584v0.853l-1.692,2.268
			l-0.528,0.324v0.06l0.504-0.071c0.28,0.023,0.546,0.088,0.798,0.191c0.252,0.104,0.472,0.255,0.66,0.45
			c0.188,0.196,0.338,0.438,0.45,0.727c0.112,0.288,0.168,0.62,0.168,0.996c0,0.472-0.078,0.88-0.234,1.224
			c-0.156,0.344-0.372,0.632-0.648,0.864c-0.276,0.231-0.598,0.403-0.966,0.516s-0.764,0.168-1.188,0.168
			c-0.352,0-0.716-0.032-1.092-0.096c-0.376-0.064-0.68-0.156-0.912-0.276L85.76,168c0.208,0.104,0.438,0.188,0.69,0.252
			C86.702,168.316,86.984,168.348,87.296,168.348z"/>
		<path fill="#B3B3B3" d="M92.288,165.288c0-1.472,0.252-2.566,0.756-3.282c0.504-0.716,1.228-1.074,2.172-1.074
			c1.008,0,1.748,0.354,2.22,1.062s0.708,1.806,0.708,3.294c0,1.48-0.254,2.58-0.762,3.3c-0.508,0.72-1.234,1.08-2.178,1.08
			c-1,0-1.736-0.378-2.208-1.134S92.288,166.696,92.288,165.288z M93.848,165.288c0,0.976,0.106,1.729,0.318,2.262
			s0.562,0.798,1.05,0.798c0.472,0,0.818-0.243,1.038-0.731c0.22-0.488,0.33-1.264,0.33-2.328c0-0.968-0.104-1.716-0.312-2.244
			s-0.564-0.792-1.068-0.792c-0.48,0-0.826,0.248-1.038,0.744S93.848,164.256,93.848,165.288z"/>
		<path fill="#B3B3B3" d="M100.423,168.18h1.668v-4.739l0.18-0.816l-0.576,0.708l-1.068,0.732l-0.66-0.9l2.736-2.208h0.876v7.224
			h1.632v1.32h-4.788V168.18z"/>
		<path fill="#B3B3B3" d="M112.315,163.152c0,0.407-0.074,0.819-0.222,1.235s-0.336,0.824-0.564,1.225
			c-0.228,0.399-0.48,0.786-0.756,1.157c-0.276,0.372-0.546,0.715-0.81,1.026l-0.636,0.492v0.06l0.864-0.168h2.304v1.32h-5.052
			v-0.804c0.192-0.2,0.408-0.435,0.648-0.702c0.24-0.269,0.482-0.552,0.726-0.853c0.244-0.3,0.482-0.609,0.714-0.93
			c0.232-0.319,0.44-0.642,0.624-0.966s0.33-0.638,0.438-0.942c0.108-0.304,0.162-0.592,0.162-0.863
			c0-0.328-0.094-0.599-0.282-0.811s-0.486-0.318-0.894-0.318c-0.256,0-0.518,0.055-0.786,0.162
			c-0.269,0.108-0.494,0.246-0.678,0.414l-0.624-1.104c0.312-0.256,0.666-0.462,1.062-0.618s0.862-0.234,1.398-0.234
			c0.344,0,0.66,0.049,0.948,0.145c0.288,0.096,0.536,0.236,0.744,0.42s0.372,0.414,0.492,0.689
			C112.255,162.462,112.315,162.784,112.315,163.152z"/>
		<path fill="#B3B3B3" d="M116.911,168.348c0.496,0,0.874-0.132,1.134-0.396s0.39-0.584,0.39-0.96c0-0.456-0.136-0.792-0.408-1.008
			c-0.272-0.217-0.7-0.324-1.284-0.324h-0.864v-0.828l1.452-1.98l0.684-0.54l-0.948,0.108h-2.016v-1.32h4.584v0.853l-1.692,2.268
			l-0.528,0.324v0.06l0.504-0.071c0.28,0.023,0.546,0.088,0.798,0.191c0.252,0.104,0.472,0.255,0.66,0.45
			c0.188,0.196,0.338,0.438,0.45,0.727c0.112,0.288,0.168,0.62,0.168,0.996c0,0.472-0.078,0.88-0.234,1.224
			c-0.156,0.344-0.372,0.632-0.648,0.864c-0.276,0.231-0.598,0.403-0.966,0.516s-0.764,0.168-1.188,0.168
			c-0.352,0-0.716-0.032-1.092-0.096c-0.376-0.064-0.68-0.156-0.912-0.276l0.42-1.296c0.208,0.104,0.438,0.188,0.69,0.252
			C116.316,168.316,116.599,168.348,116.911,168.348z"/>
	</g>
	<g>
		<path fill="#B3B3B3" d="M135.98,165.288c0-1.472,0.252-2.566,0.756-3.282s1.228-1.074,2.172-1.074c1.008,0,1.748,0.354,2.22,1.062
			s0.708,1.806,0.708,3.294c0,1.48-0.254,2.58-0.762,3.3s-1.234,1.08-2.178,1.08c-1,0-1.736-0.378-2.209-1.134
			C136.216,167.778,135.98,166.696,135.98,165.288z M137.54,165.288c0,0.976,0.106,1.729,0.317,2.262
			c0.213,0.532,0.562,0.798,1.051,0.798c0.472,0,0.818-0.243,1.037-0.731c0.221-0.488,0.33-1.264,0.33-2.328
			c0-0.968-0.104-1.716-0.312-2.244s-0.563-0.792-1.067-0.792c-0.48,0-0.826,0.248-1.039,0.744
			C137.646,163.492,137.54,164.256,137.54,165.288z"/>
		<path fill="#B3B3B3" d="M149.54,167.16h-1.32v2.34h-1.452v-2.34h-3.636v-0.888l3.804-5.232h1.284v4.872h1.32V167.16z
			 M146.768,164.076l0.108-1.008h-0.048l-0.408,0.863l-1.248,1.62l-0.6,0.456l0.768-0.096h1.428V164.076z"/>
		<path fill="#B3B3B3" d="M152.947,168.288c0.528,0,0.932-0.128,1.213-0.384c0.279-0.256,0.42-0.608,0.42-1.057
			c0-0.479-0.164-0.832-0.492-1.056s-0.797-0.336-1.404-0.336l-0.947,0.036V161.1h4.127v1.465h-2.783v1.619l0.492-0.048
			c0.391,0.017,0.745,0.089,1.062,0.216c0.315,0.129,0.586,0.307,0.81,0.534c0.225,0.229,0.396,0.504,0.516,0.828
			c0.121,0.324,0.181,0.687,0.181,1.086c0,0.473-0.08,0.889-0.24,1.248c-0.16,0.36-0.382,0.66-0.666,0.9s-0.618,0.42-1.002,0.54
			s-0.804,0.18-1.26,0.18c-0.36,0-0.702-0.03-1.026-0.09c-0.324-0.061-0.598-0.142-0.822-0.246l0.42-1.296
			c0.185,0.08,0.387,0.142,0.606,0.186S152.636,168.288,152.947,168.288z"/>
		<path fill="#B3B3B3" d="M158.923,168.18h1.668v-4.739l0.181-0.816l-0.576,0.708l-1.068,0.732l-0.66-0.9l2.736-2.208h0.876v7.224
			h1.632v1.32h-4.788V168.18z"/>
		<path fill="#B3B3B3" d="M170.814,163.152c0,0.407-0.074,0.819-0.222,1.235s-0.336,0.824-0.563,1.225
			c-0.229,0.399-0.48,0.786-0.756,1.157c-0.277,0.372-0.547,0.715-0.811,1.026l-0.637,0.492v0.06l0.865-0.168h2.303v1.32h-5.051
			v-0.804c0.191-0.2,0.407-0.435,0.647-0.702c0.239-0.269,0.481-0.552,0.726-0.853c0.244-0.3,0.482-0.609,0.715-0.93
			c0.231-0.319,0.439-0.642,0.623-0.966c0.185-0.324,0.33-0.638,0.438-0.942c0.108-0.304,0.162-0.592,0.162-0.863
			c0-0.328-0.095-0.599-0.282-0.811s-0.486-0.318-0.895-0.318c-0.256,0-0.518,0.055-0.785,0.162
			c-0.269,0.108-0.494,0.246-0.678,0.414l-0.625-1.104c0.312-0.256,0.666-0.462,1.062-0.618s0.861-0.234,1.398-0.234
			c0.344,0,0.66,0.049,0.947,0.145c0.288,0.096,0.536,0.236,0.744,0.42s0.372,0.414,0.492,0.689
			C170.755,162.462,170.814,162.784,170.814,163.152z"/>
		<path fill="#B3B3B3" d="M175.41,168.348c0.496,0,0.875-0.132,1.135-0.396s0.39-0.584,0.39-0.96c0-0.456-0.136-0.792-0.408-1.008
			c-0.272-0.217-0.7-0.324-1.284-0.324h-0.863v-0.828l1.451-1.98l0.685-0.54l-0.948,0.108h-2.016v-1.32h4.584v0.853l-1.692,2.268
			l-0.528,0.324v0.06l0.504-0.071c0.281,0.023,0.547,0.088,0.799,0.191c0.252,0.104,0.472,0.255,0.66,0.45
			c0.188,0.196,0.338,0.438,0.449,0.727c0.112,0.288,0.168,0.62,0.168,0.996c0,0.472-0.078,0.88-0.233,1.224
			c-0.156,0.344-0.372,0.632-0.647,0.864c-0.277,0.231-0.599,0.403-0.967,0.516s-0.764,0.168-1.188,0.168
			c-0.353,0-0.717-0.032-1.092-0.096c-0.377-0.064-0.681-0.156-0.912-0.276l0.42-1.296c0.207,0.104,0.438,0.188,0.689,0.252
			C174.816,168.316,175.099,168.348,175.41,168.348z"/>
	</g>
</g>
</svg>
